<svg xmlns="http://www.w3.org/2000/svg" width="75.087" height="76.078" viewBox="0 0 75.087 76.078">
  <g id="LOGO" transform="translate(1 1)">
    <g id="Group_4" data-name="Group 4">
      <path id="path9275_00000001641438408075057270000003023178381340747168_" d="M-873.1-132.4" transform="translate(890.443 139.108)" fill="none" stroke="#7d5748" stroke-miterlimit="11.339" stroke-width="2"/>
      <g id="LOGO-2" data-name="LOGO">
        <g id="LOGO-3" data-name="LOGO">
          <path id="path32520" d="M36.543,0C56.726,0,73.087,16.583,73.087,37.039S56.726,74.078,36.543,74.078,0,57.5,0,37.039,16.361,0,36.543,0Z" fill="none" stroke="#7d5748" stroke-width="2"/>
          <g id="path9275_00000056407334497098824800000001638244726454536631_" transform="translate(8.222 12.21)">
            <path id="Path_1" data-name="Path 1" d="M55.591,50.993c-3.25.158-5.84.369-8.429,1.79a13.1,13.1,0,0,0-5.1,5.476,19.606,19.606,0,0,0-1.453,5.291c-.238,1.422-.555,4.633-.608,4.738-.026,0-3.435,6.66-3.461,6.687-.026.079-.132.237-.159.316a1.321,1.321,0,0,0-.132.948,1.224,1.224,0,0,0,.766.842c.555.237,1.136.474,1.691.658l.476.158A1.9,1.9,0,0,1,40.4,79.5,89.244,89.244,0,0,1,41.375,93.3a6.032,6.032,0,0,1-.079.684c0,.553.5.948,1.031,1.369a5.008,5.008,0,0,0,.793.5h.053l.185-.026c3.726-.869,9.962-2.317,13.714-3.159.132-.026.555-.132.687-.158a1.787,1.787,0,0,1,2.272,1.369c.053.448.026,2,.053,2.475.053,4.581,0,9.688,0,14.268v.105a.18.18,0,0,0,.185.184h.185a34.014,34.014,0,0,0,13.264-2.159c.661-.237,1.612-.632,2.22-.9a.364.364,0,0,0,.079-.105v-.211l.053-3.738.185-14.953c0-5-.053-9.977.264-14.953v-.211a.3.3,0,0,1,.317-.29c.978-.026,3.646-.026,4.65-.026a.3.3,0,0,1,.317.316V73.9a.3.3,0,0,1-.317.316L77.02,74.4h0a.329.329,0,0,1,.555.211c.661,10.977.159,21.981.106,32.985a2.21,2.21,0,0,1-.106.711,1.779,1.779,0,0,1-1.083,1.132l-.449.184c-1.163.474-2.4.948-3.594,1.343a35.4,35.4,0,0,1-11.838,1.658h-.37a1.857,1.857,0,0,1-1.85-1.632c-.053-4.686.026-9.9-.026-14.584,0-.132-.026-2.053-.026-2.106v-.053a.093.093,0,0,0-.106-.105l-3.594.816c-2.4.553-8.64,1.974-10.992,2.5a2.284,2.284,0,0,1-.74.079,3.9,3.9,0,0,1-1.638-.842,3.3,3.3,0,0,1-1.638-3.054,39.456,39.456,0,0,0-.079-6.371c-.185-2.475-.449-4.949-.74-7.4l-.026-.105a.373.373,0,0,0-.238-.369,20.308,20.308,0,0,1-2.22-.842,2.853,2.853,0,0,1-1.031-.737,2.742,2.742,0,0,1-.343-3.133l.053-.105.106-.211,3.461-6.634s.238-2.922.476-4.344a21.777,21.777,0,0,1,1.612-5.686c3.3-6.16,8.191-7.924,14.929-7.818,2.986,0,5.945.132,8.931.342.053,0,.079.053.079.105a.416.416,0,0,1-.4.448C62.91,50.862,58.074,50.914,55.591,50.993Z" transform="translate(-34.614 -49.883)" fill="#7d5748"/>
          </g>
          <g id="g22401" transform="translate(44.093 12.749)">
            <path id="path21441" d="M179.195,45.1v3.633a.3.3,0,0,1-.317.316h-1.8a.3.3,0,0,0-.317.316v1.843a.3.3,0,0,1-.317.316l-3.329.026a.3.3,0,0,0-.317.316v.448a.3.3,0,0,0,.317.316l3.329-.026a.3.3,0,0,1,.317.316v1.764a.3.3,0,0,0,.317.316h1.8a.3.3,0,0,1,.317.316v3.317a.3.3,0,0,0,.317.316h.449a.3.3,0,0,0,.317-.316V55.314a.3.3,0,0,1,.317-.316h1.8a.3.3,0,0,0,.317-.316v-1.79a.3.3,0,0,1,.317-.316h3.329a.3.3,0,0,0,.317-.316v-.421a.3.3,0,0,0-.317-.316h-3.329a.3.3,0,0,1-.317-.316v-1.79a.3.3,0,0,0-.317-.316h-1.8a.3.3,0,0,1-.317-.316V45.469a.3.3,0,0,0-.317-.316h-.766Z" transform="translate(-172.298 -44.6)" fill="#7d5748"/>
            <ellipse id="path21594" cx="0.502" cy="0.5" rx="0.502" ry="0.5" transform="translate(6.923)" fill="#7d5748" stroke="#7d5748" stroke-miterlimit="11.339" stroke-width="2"/>
            <ellipse id="path21594-2" data-name="path21594" cx="0.502" cy="0.5" rx="0.502" ry="0.5" transform="translate(0 6.923)" fill="#7d5748" stroke="#7d5748" stroke-miterlimit="11.339" stroke-width="2"/>
            <ellipse id="circle21676" cx="0.502" cy="0.5" rx="0.502" ry="0.5" transform="translate(6.923 13.821)" fill="#7d5748" stroke="#7d5748" stroke-miterlimit="11.339" stroke-width="2"/>
            <ellipse id="circle21678" cx="0.502" cy="0.5" rx="0.502" ry="0.5" transform="translate(13.872 6.923)" fill="#7d5748" stroke="#7d5748" stroke-miterlimit="11.339" stroke-width="2"/>
          </g>
        </g>
      </g>
    </g>
  </g>
</svg>
